<svg width="105" height="38" viewBox="0 0 105 38" fill="none" xmlns="http://www.w3.org/2000/svg">
<circle cx="19" cy="13" r="13" fill="white"/>
<g filter="url(#filter0_d_3_2466)">
<circle cx="19" cy="13" r="7" fill="url(#paint0_radial_3_2466)"/>
</g>
<path d="M44.528 15.2H40.628L39.884 17H37.892L41.636 8.6H43.556L47.312 17H45.272L44.528 15.2ZM43.916 13.724L42.584 10.508L41.252 13.724H43.916ZM52.1569 16.688C51.9729 16.824 51.7449 16.928 51.4729 17C51.2089 17.064 50.9289 17.096 50.6329 17.096C49.8649 17.096 49.2689 16.9 48.8449 16.508C48.4289 16.116 48.2209 15.54 48.2209 14.78V12.128H47.2249V10.688H48.2209V9.116H50.0929V10.688H51.7009V12.128H50.0929V14.756C50.0929 15.028 50.1609 15.24 50.2969 15.392C50.4409 15.536 50.6409 15.608 50.8969 15.608C51.1929 15.608 51.4449 15.528 51.6529 15.368L52.1569 16.688ZM56.0805 17.096C55.4005 17.096 54.7885 16.956 54.2445 16.676C53.7085 16.388 53.2885 15.992 52.9845 15.488C52.6805 14.984 52.5285 14.412 52.5285 13.772C52.5285 13.132 52.6805 12.56 52.9845 12.056C53.2885 11.552 53.7085 11.16 54.2445 10.88C54.7885 10.592 55.4005 10.448 56.0805 10.448C56.7605 10.448 57.3685 10.592 57.9045 10.88C58.4405 11.16 58.8605 11.552 59.1645 12.056C59.4685 12.56 59.6205 13.132 59.6205 13.772C59.6205 14.412 59.4685 14.984 59.1645 15.488C58.8605 15.992 58.4405 16.388 57.9045 16.676C57.3685 16.956 56.7605 17.096 56.0805 17.096ZM56.0805 15.56C56.5605 15.56 56.9525 15.4 57.2565 15.08C57.5685 14.752 57.7245 14.316 57.7245 13.772C57.7245 13.228 57.5685 12.796 57.2565 12.476C56.9525 12.148 56.5605 11.984 56.0805 11.984C55.6005 11.984 55.2045 12.148 54.8925 12.476C54.5805 12.796 54.4245 13.228 54.4245 13.772C54.4245 14.316 54.5805 14.752 54.8925 15.08C55.2045 15.4 55.6005 15.56 56.0805 15.56ZM69.1398 10.448C69.9478 10.448 70.5878 10.688 71.0598 11.168C71.5398 11.64 71.7798 12.352 71.7798 13.304V17H69.9078V13.592C69.9078 13.08 69.7998 12.7 69.5838 12.452C69.3758 12.196 69.0758 12.068 68.6838 12.068C68.2438 12.068 67.8958 12.212 67.6398 12.5C67.3838 12.78 67.2558 13.2 67.2558 13.76V17H65.3838V13.592C65.3838 12.576 64.9758 12.068 64.1598 12.068C63.7278 12.068 63.3838 12.212 63.1278 12.5C62.8718 12.78 62.7438 13.2 62.7438 13.76V17H60.8718V10.544H62.6598V11.288C62.8998 11.016 63.1918 10.808 63.5358 10.664C63.8878 10.52 64.2718 10.448 64.6878 10.448C65.1438 10.448 65.5558 10.54 65.9238 10.724C66.2918 10.9 66.5878 11.16 66.8118 11.504C67.0758 11.168 67.4078 10.908 67.8078 10.724C68.2158 10.54 68.6598 10.448 69.1398 10.448ZM79.5058 12.644C79.9938 12.78 80.3778 13.028 80.6578 13.388C80.9378 13.74 81.0778 14.188 81.0778 14.732C81.0778 15.46 80.8018 16.02 80.2498 16.412C79.7058 16.804 78.9098 17 77.8618 17H73.8538V8.6H77.6218C78.5818 8.6 79.3218 8.792 79.8418 9.176C80.3698 9.56 80.6338 10.092 80.6338 10.772C80.6338 11.212 80.5298 11.592 80.3218 11.912C80.1218 12.232 79.8498 12.476 79.5058 12.644ZM75.0538 9.572V12.26H77.5138C78.1298 12.26 78.6018 12.148 78.9297 11.924C79.2658 11.692 79.4338 11.356 79.4338 10.916C79.4338 10.476 79.2658 10.144 78.9297 9.92C78.6018 9.688 78.1298 9.572 77.5138 9.572H75.0538ZM77.8138 16.028C78.4938 16.028 79.0058 15.916 79.3498 15.692C79.6938 15.468 79.8658 15.116 79.8658 14.636C79.8658 13.7 79.1818 13.232 77.8138 13.232H75.0538V16.028H77.8138ZM85.0838 10.58C85.9638 10.58 86.6358 10.796 87.0998 11.228C87.5718 11.66 87.8078 12.304 87.8078 13.16V17H86.7158V16.16C86.5238 16.456 86.2478 16.684 85.8878 16.844C85.5358 16.996 85.1158 17.072 84.6278 17.072C83.9158 17.072 83.3438 16.9 82.9118 16.556C82.4878 16.212 82.2758 15.76 82.2758 15.2C82.2758 14.64 82.4798 14.192 82.8878 13.856C83.2958 13.512 83.9438 13.34 84.8318 13.34H86.6558V13.112C86.6558 12.616 86.5118 12.236 86.2238 11.972C85.9358 11.708 85.5118 11.576 84.9518 11.576C84.5758 11.576 84.2078 11.64 83.8478 11.768C83.4878 11.888 83.1838 12.052 82.9358 12.26L82.4558 11.396C82.7838 11.132 83.1758 10.932 83.6318 10.796C84.0878 10.652 84.5718 10.58 85.0838 10.58ZM84.8198 16.184C85.2598 16.184 85.6398 16.088 85.9598 15.896C86.2798 15.696 86.5118 15.416 86.6558 15.056V14.168H84.8798C83.9038 14.168 83.4158 14.496 83.4158 15.152C83.4158 15.472 83.5398 15.724 83.7878 15.908C84.0358 16.092 84.3798 16.184 84.8198 16.184ZM93.3357 10.58C94.1437 10.58 94.7837 10.816 95.2557 11.288C95.7357 11.752 95.9757 12.436 95.9757 13.34V17H94.8237V13.472C94.8237 12.856 94.6757 12.392 94.3797 12.08C94.0837 11.768 93.6597 11.612 93.1077 11.612C92.4837 11.612 91.9917 11.796 91.6317 12.164C91.2717 12.524 91.0917 13.044 91.0917 13.724V17H89.9397V10.64H91.0437V11.6C91.2757 11.272 91.5877 11.02 91.9797 10.844C92.3797 10.668 92.8317 10.58 93.3357 10.58ZM100.58 14.036L99.2596 15.26V17H98.1076V8.096H99.2596V13.808L102.728 10.64H104.12L101.444 13.268L104.384 17H102.968L100.58 14.036Z" fill="white"/>
<defs>
<filter id="filter0_d_3_2466" x="0" y="0" width="38" height="38" filterUnits="userSpaceOnUse" color-interpolation-filters="sRGB">
<feFlood flood-opacity="0" result="BackgroundImageFix"/>
<feColorMatrix in="SourceAlpha" type="matrix" values="0 0 0 0 0 0 0 0 0 0 0 0 0 0 0 0 0 0 127 0" result="hardAlpha"/>
<feOffset dy="6"/>
<feGaussianBlur stdDeviation="6"/>
<feComposite in2="hardAlpha" operator="out"/>
<feColorMatrix type="matrix" values="0 0 0 0 0.483333 0 0 0 0 0.483333 0 0 0 0 0.483333 0 0 0 0.2 0"/>
<feBlend mode="normal" in2="BackgroundImageFix" result="effect1_dropShadow_3_2466"/>
<feBlend mode="normal" in="SourceGraphic" in2="effect1_dropShadow_3_2466" result="shape"/>
</filter>
<radialGradient id="paint0_radial_3_2466" cx="0" cy="0" r="1" gradientUnits="userSpaceOnUse" gradientTransform="translate(26.1952 20.15) rotate(-137.028) scale(15.7339 18.3847)">
<stop stop-color="#13C93E"/>
<stop offset="1" stop-color="#ADE446"/>
</radialGradient>
</defs>
</svg>
